<svg width="64" height="64" xmlns="http://www.w3.org/2000/svg">

 <g>
  <title>background</title>
  <rect fill="none" id="canvas_background" height="66" width="66" y="-1" x="-1"/>
 </g>
 <g>
  <title>Layer 1</title>
  <path fill="#ff2d2d" id="Fill-18" d="m31.2,52.10762c-18.2,-14.8 -23.1,-20 -23.1,-28.5c0,-7 5.7,-12.6 12.6,-12.6c5.8,0 9.1,3.3 11.3,5.8c2.2,-2.5 5.5,-5.8 11.3,-5.8c7,0 12.6,5.7 12.6,12.6c0,8.5 -4.9,13.7 -23.1,28.5l-0.8,0.7l-0.8,-0.7z" class="st0"/>
  <path d="m17.635126,18.605103c0.092379,0 0.369514,0.184757 0.554272,0.554272c0.277136,0.554272 0.75131,1.377621 1.293301,2.217087c0.472708,0.732157 1.149145,1.515755 1.939951,1.755192c0.712824,0.215826 1.293301,0.184757 1.755194,0.184757c0.184757,0 0.440218,-0.19882 0.369514,-0.369514c-0.049995,-0.120699 -0.277136,-0.277136 -0.369514,-0.369514c-0.092379,-0.092379 -0.184757,-0.092379 -0.277136,-0.092379l-0.092379,-0.092379l0,0" id="svg_2" stroke-width="null" fill="none"/>
  <polyline stroke-linecap="round" id="svg_3" points="1.6536272648408072,13.2471425715759 1.6536272648408072,13.2471425715759 1.6536272648408072,13.2471425715759 " stroke-width="null" fill="none"/>
 </g>
</svg>