<svg width="64" height="64" xmlns="http://www.w3.org/2000/svg">

 <g>
  <title>background</title>
  <rect fill="none" id="canvas_background" height="402" width="582" y="-1" x="-1"/>
 </g>
 <g>
  <title>Layer 1</title>
  <path fill="#03acfa" id="Fill-18" d="m32,52.9l-0.8,-0.7c-18.2,-14.8 -23.1,-20 -23.1,-28.5c0,-7 5.7,-12.6 12.6,-12.6c5.8,0 9.1,3.3 11.3,5.8c2.2,-2.5 5.5,-5.8 11.3,-5.8c7,0 12.6,5.7 12.6,12.6c0,8.5 -4.9,13.7 -23.1,28.5l-0.8,0.7l0,0zm-11.3,-39.2c-5.5,0 -10,4.5 -10,10c0,7.3 4.6,12.1 21.3,25.8c16.7,-13.7 21.3,-18.5 21.3,-25.8c0,-5.5 -4.5,-10 -10,-10c-5,0 -7.7,3 -9.8,5.4l-1.5,1.7l-1.5,-1.7c-2.1,-2.4 -4.8,-5.4 -9.8,-5.4l0,0z" class="st0"/>
 </g>
</svg>