<svg width="23" height="19" viewBox="0 0 23 19" xmlns="http://www.w3.org/2000/svg" xmlns:xlink="http://www.w3.org/1999/xlink"><title>twtiter</title><defs><path id="a" d="M0 18.576h22.857V0H0v18.576z"/></defs><g transform="translate(.006)" fill="none" fill-rule="evenodd"><mask id="b" fill="#fff"><use xlink:href="#a"/></mask><path d="M20.518 4.626c.01.202.014.403.014.607 0 6.197-4.717 13.343-13.343 13.343-2.65 0-5.113-.777-7.189-2.107.368.041.74.064 1.119.064a9.403 9.403 0 0 0 5.823-2.005 4.696 4.696 0 0 1-4.379-3.259 4.672 4.672 0 0 0 2.116-.08A4.695 4.695 0 0 1 .918 6.59v-.058a4.677 4.677 0 0 0 2.125.587A4.688 4.688 0 0 1 .958 3.216c0-.86.231-1.666.634-2.358a13.307 13.307 0 0 0 9.666 4.9A4.688 4.688 0 0 1 15.827 0a4.68 4.68 0 0 1 3.42 1.48 9.378 9.378 0 0 0 2.98-1.14 4.698 4.698 0 0 1-2.062 2.595 9.35 9.35 0 0 0 2.693-.737 9.522 9.522 0 0 1-2.34 2.427" fill="#8E8E8E" mask="url(#b)"/></g></svg>