<svg width="41" height="29" viewBox="0 0 41 29" xmlns="http://www.w3.org/2000/svg"><title>hand_magic</title><defs><linearGradient x1="23.065%" y1="94.37%" x2="66.365%" y2="28.887%" id="a"><stop stop-color="#FFEDE1" stop-opacity=".894" offset="0%"/><stop stop-color="#FFDCC5" offset="100%"/></linearGradient></defs><g fill="none" fill-rule="evenodd"><path d="M6.06 12.25V5.154a1.346 1.346 0 1 0-2.692 0v7.233c-.023 1.016-.593 1.05-.593-.064V7.368a1.346 1.346 0 1 0-2.692 0v6.037C-.654 22.995 3.75 24.5 3.75 24.5h6.767c2.306-.513 4.803-3.725 5.316-5.775.512-2.05 2.05-4.869 2.82-5.894.767-1.025-1.282-2.05-2.308-1.537-.924.462-2.173 1.662-2.786 3.021-.806 1.765-1.052-.211-1.103-.773V4.416a1.346 1.346 0 0 0-2.692 0v7.844c-.223.055-.42-.089-.42-.089V2.268a1.346 1.346 0 0 0-2.692 0v9.903c0 .486-.577.492-.593.079z" fill="url(#a)" transform="translate(0 4)"/><path d="M18.817 16.431c-.503-.017-1.678 1.393-1.913 1.863.47.47.636.345.636.345s1.244-1.755 1.277-2.208M12.07 10.22h-1.92V8.3a.96.96 0 1 1 1.92 0v1.92zM9.016 7.986h-1.92v-1.92a.96.96 0 1 1 1.92 0v1.92zM5.8 10.843H3.88v-1.92a.96.96 0 0 1 1.92 0v1.92zm-3.435 2.186H.445v-1.92a.96.96 0 0 1 1.92 0v1.92z" fill="#FFC197"/><path d="M6.06 12.25V5.154a1.346 1.346 0 1 0-2.692 0v7.233c-.023 1.016-.593 1.05-.593-.064V7.368a1.346 1.346 0 1 0-2.692 0v6.037C-.654 22.995 3.75 24.5 3.75 24.5h6.767c2.306-.513 4.803-3.725 5.316-5.775.512-2.05 2.05-4.869 2.82-5.894.767-1.025-1.282-2.05-2.308-1.537-.924.462-2.173 1.662-2.786 3.021-.806 1.765-1.052-.211-1.103-.773V4.416a1.346 1.346 0 0 0-2.692 0v7.844c-.223.055-.42-.089-.42-.089V2.268a1.346 1.346 0 0 0-2.692 0v9.903c0 .486-.577.492-.593.079z" fill="url(#a)" transform="matrix(-1 0 0 1 41 4)"/><path d="M22.183 16.431c.503-.017 1.678 1.393 1.913 1.863-.47.47-.636.345-.636.345s-1.244-1.755-1.277-2.208m6.747-6.211h1.92V8.3a.96.96 0 1 0-1.92 0v1.92zm3.054-2.234h1.92v-1.92a.96.96 0 1 0-1.92 0v1.92zm3.216 2.857h1.92v-1.92a.96.96 0 0 0-1.92 0v1.92zm3.435 2.186h1.92v-1.92a.96.96 0 0 0-1.92 0v1.92z" fill="#FFC197"/><path stroke="#FFCD02" stroke-linecap="round" stroke-linejoin="round" d="M20.82 2V.5v3zm7.5.5l1.061-1.061-1.06 1.061-1.062 1.061zm-15 0l-1.06-1.061L13.32 2.5l1.062 1.061z"/></g></svg>