<svg width="15" height="19" viewBox="0 0 15 19" xmlns="http://www.w3.org/2000/svg"><title>pinterest</title><path d="M9.032 13.491c-1.158 0-2.247-.625-2.62-1.336 0 0-.622 2.47-.754 2.947-.465 1.685-1.83 3.372-1.936 3.509-.073.096-.238.065-.255-.061-.03-.216-.378-2.342.032-4.075.207-.87 1.38-5.843 1.38-5.843s-.344-.684-.344-1.695c0-1.59.923-2.776 2.07-2.776.975 0 1.445.732 1.445 1.609 0 .981-.624 2.448-.946 3.806-.269 1.136.57 2.064 1.692 2.064 2.031 0 3.4-2.61 3.4-5.7 0-2.35-1.583-4.11-4.462-4.11-3.251 0-5.279 2.427-5.279 5.136 0 .934.277 1.594.708 2.102.199.235.226.33.154.599-.052.197-.169.672-.219.86-.07.271-.292.367-.537.268C1.063 10.184.366 8.543.366 6.699.366 3.652 2.934 0 8.03 0c4.092 0 6.787 2.962 6.787 6.142 0 4.206-2.339 7.348-5.785 7.348" fill="#8E8E8E" fill-rule="evenodd"/></svg>