<svg width="22" height="19" viewBox="0 0 22 19" xmlns="http://www.w3.org/2000/svg" xmlns:xlink="http://www.w3.org/1999/xlink"><title>CD14D7F0-5B41-49FE-BE24-18CA2E893729</title><defs><path d="M0 7.998C0 7.447.44 7 1.002 7h19.996A1 1 0 0 1 22 7.998v7.004c0 .551-.44.998-1.002.998H1.002A1 1 0 0 1 0 15.002V7.998z" id="a"/><mask id="d" x="0" y="0" width="22" height="9" fill="#fff"><use xlink:href="#a"/></mask><path id="b" d="M4 0h14.252v8H4z"/><mask id="e" x="0" y="0" width="14.252" height="8" fill="#fff"><use xlink:href="#b"/></mask><path id="c" d="M4 10h14.252v9H4z"/><mask id="f" x="0" y="0" width="14.252" height="9" fill="#fff"><use xlink:href="#c"/></mask></defs><g fill="none" fill-rule="evenodd"><use stroke="#8E8E8E" mask="url(#d)" stroke-width="2" fill="#8E8E8E" xlink:href="#a"/><use stroke="#8E8E8E" mask="url(#e)" stroke-width="2" xlink:href="#b"/><use stroke="#8E8E8E" mask="url(#f)" stroke-width="2" fill="#FFF" xlink:href="#c"/><circle fill="#FFF" cx="19.75" cy="9.75" r=".75"/><path d="M6.5 12.5h9m-9 2h9m-9 2h9" stroke="#979797" stroke-linecap="square"/></g></svg>