<svg width="80" height="70" xmlns="http://www.w3.org/2000/svg">
 <title/>

 <g>
  <title>background</title>
  <rect fill="none" id="canvas_background" height="402" width="582" y="-1" x="-1"/>
 </g>
 <g>
  <title>Layer 1</title>
  <path fill="#0388ce" id="svg_1" d="m5.4,5.6l0,58.8l69.1,0l0,-58.8l-69.1,0zm66.2,55.8l-63.2,0l0,-52.8l63.1,0l0,52.8l0.1,0z"/>
  <polygon fill="#0388ce" id="svg_2" points="28.3,27.7 39,38.4 41.2,36.3 28.3,23.4 15.4,36.3 17.6,38.4   "/>
  <polygon fill="#0388ce" id="svg_3" points="41.8,27.7 62.3,48.2 64.4,46.1 41.8,23.4 35.3,29.9 37.4,32   "/>
  <path fill="#0388ce" id="svg_4" d="m59.4,23.1c3,0 5.4,-2.4 5.4,-5.4s-2.4,-5.4 -5.4,-5.4s-5.4,2.5 -5.4,5.4s2.5,5.4 5.4,5.4l0,0zm0,-7.7c1.3,0 2.4,1.1 2.4,2.4c0,1.3 -1.1,2.4 -2.4,2.4c-1.3,0 -2.4,-1.1 -2.4,-2.4c0,-1.4 1.1,-2.4 2.4,-2.4c0,-0.1 0,-0.1 0,0l0,0z"/>
 </g>
</svg>