<svg xmlns="http://www.w3.org/2000/svg" xmlns:xlink="http://www.w3.org/1999/xlink" width="27" height="41" viewBox="0 0 27 41"><defs><linearGradient id="a" x1="68.654%" x2="35.227%" y1="21.284%" y2="96.292%"><stop offset="0%" stop-color="#FFEFE5"/><stop offset="100%" stop-color="#FFDDC6"/></linearGradient><linearGradient id="b" x1="78.298%" x2="117.966%" y1="0%" y2="115.073%"><stop offset="0%" stop-color="#FFEFE5"/><stop offset="100%" stop-color="#FFDDC6"/></linearGradient><path id="c" d="M.433.65h7.69v19.475H.434V.65z"/><path id="e" d="M5.673.117v11.53H.659V.118h5.014z"/><linearGradient id="f" x1="64.089%" x2="78.143%" y1="5.737%" y2="100%"><stop offset="0%" stop-color="#FFEFE5"/><stop offset="100%" stop-color="#FFDDC6"/></linearGradient><linearGradient id="h" x1="50%" x2="68.713%" y1="100%" y2="14.646%"><stop offset="0%" stop-color="#FFEFE5"/><stop offset="100%" stop-color="#FFDDC6"/></linearGradient></defs><g fill="none" fill-rule="evenodd"><path fill="url(#a)" d="M0 25.94C0 40.362 8.66 41 8.66 41h9.93s8.533-3.093 7.093-21.391h-9.93L0 25.939z"/><path fill="url(#b)" d="M4.094 18.18L.052 3.523A2.72 2.72 0 0 1 2.287.315l.021-.003A2.733 2.733 0 0 1 5.442 2.47l4.041 14.658" transform="translate(0 2.674)"/><g transform="translate(8.913)"><mask id="d" fill="#fff"><use xlink:href="#c"/></mask><path fill="url(#b)" d="M.433 20.125L2.73 2.968C2.954 1.518 4.267.503 5.71.667 7.246.84 8.329 2.27 8.09 3.812L6.06 19.007" mask="url(#d)"/></g><g transform="translate(20.5 16.935)"><mask id="g" fill="#fff"><use xlink:href="#e"/></mask><path fill="url(#f)" d="M3.166.117c1.384 0 2.507 1.195 2.507 2.669v6.193c0 1.473-1.123 2.669-2.507 2.669-1.384 0-2.507-1.196-2.507-2.67V2.787c0-1.474 1.123-2.67 2.507-2.67" mask="url(#g)"/></g><path fill="url(#f)" d="M17.826 16.935c1.476 0 2.674 1.15 2.674 2.567v7.344c0 1.417-1.198 2.567-2.674 2.567s-2.674-1.15-2.674-2.567v-7.344c0-1.417 1.198-2.567 2.674-2.567"/><path fill="#FFC197" d="M16.935 25.607v2.042c0 .975.721 1.764 1.613 1.764h.34c.89 0 1.612-.79 1.612-1.764v-1.987c-.973-.931-2.592-.931-3.565-.055m5.348-.891v2.041c0 .975.721 1.765 1.613 1.765h.339c.891 0 1.613-.79 1.613-1.765v-1.986c-.973-.932-2.593-.932-3.565-.055"/><path fill="url(#h)" d="M9.013 41c1.505-2.446 1.704-3.084 2.245-6.652.36-2.38-.423-5.03-2.35-7.954 1.138.094 3.681-.173 5.804-1.2 1.51-.732 2.62-2.095 3.344-2.869 1.325-1.417.572-5.17-1.484-4.395-2.057.776-5.469 1.57-9.109 1.475-2.607-.069-7.37 1.398-7.37 6.38C-1.042 39.127 8.526 41 9.013 41z"/><path fill="#FFC197" d="M16.935 18.724c-.168.904-3.116 2.437-4.037 2.667-.642-1.024-.357-1.27-.357-1.27s3.582-1.518 4.394-1.397"/></g></svg>